<svg xmlns="http://www.w3.org/2000/svg" viewBox="0 0 300 400">
<path d="M 73,20 L 76,25 L 75,29 L 83,28 L 84,32 L 79,39 L 78,46 L 72,44 L 67,55 L 67,46 L 62,40 L 66,39 L 67,29 L 62,27 L 65,23 L 60,22 L 64,16 L 73,20 Z M 70,14 L 74,14 L 74,20 L 64,16 L 70,12 L 70,14 Z M 65,39 L 62,40 L 67,46 L 66,54 L 63,53 L 59,57 L 61,60 L 46,64 L 46,57 L 61,32 L 58,29 L 62,26 L 67,29 L 65,39 Z M 79,12 L 85,17 L 97,13 L 104,19 L 99,25 L 100,38 L 96,45 L 87,35 L 83,35 L 83,28 L 75,29 L 73,15 L 76,11 L 79,12 Z M 173,96 L 171,96 L 172,99 L 167,94 L 165,95 L 164,89 L 168,91 L 173,89 L 173,96 Z M 163,70 L 167,70 L 170,76 L 174,76 L 176,72 L 179,81 L 171,91 L 164,89 L 164,93 L 160,96 L 147,98 L 147,93 L 142,89 L 143,85 L 140,83 L 142,77 L 145,78 L 148,74 L 153,72 L 156,74 L 159,70 L 163,70 Z M 181,88 L 174,86 L 179,81 L 182,82 L 181,88 Z M 180,90 L 181,95 L 179,96 L 177,92 L 180,90 Z M 196,92 L 193,96 L 181,95 L 180,88 L 183,86 L 196,92 Z M 180,88 L 177,92 L 179,96 L 173,97 L 173,88 L 180,88 Z M 172,59 L 170,61 L 163,59 L 156,74 L 153,72 L 145,78 L 139,73 L 133,75 L 132,66 L 136,59 L 133,59 L 129,50 L 136,41 L 146,36 L 141,23 L 144,23 L 152,13 L 159,24 L 166,27 L 168,48 L 172,59 Z M 187,293 L 195,294 L 197,297 L 197,301 L 193,303 L 197,309 L 190,319 L 191,325 L 182,325 L 184,328 L 181,329 L 177,321 L 173,319 L 171,321 L 177,328 L 168,333 L 160,330 L 159,320 L 154,316 L 158,315 L 165,319 L 167,317 L 163,301 L 169,300 L 169,295 L 174,292 L 187,293 Z M 177,325 L 172,321 L 173,319 L 177,321 L 177,325 Z M 203,247 L 200,249 L 200,256 L 192,250 L 194,249 L 192,245 L 200,240 L 203,247 Z M 165,251 L 163,267 L 165,273 L 160,274 L 159,272 L 154,276 L 151,274 L 147,278 L 143,279 L 143,276 L 139,278 L 134,273 L 139,266 L 129,277 L 130,262 L 137,259 L 136,251 L 144,255 L 147,250 L 149,250 L 148,253 L 159,252 L 157,249 L 160,246 L 165,251 Z M 191,251 L 200,256 L 199,259 L 204,263 L 203,265 L 197,263 L 205,270 L 205,286 L 203,282 L 200,282 L 200,285 L 198,280 L 190,280 L 192,270 L 184,266 L 186,253 L 183,251 L 190,248 L 191,251 Z M 219,251 L 225,250 L 230,264 L 224,267 L 223,273 L 218,272 L 206,278 L 205,270 L 197,263 L 205,265 L 208,262 L 210,264 L 209,254 L 210,256 L 214,254 L 218,248 L 219,251 Z M 142,295 L 138,298 L 131,298 L 128,293 L 130,294 L 134,289 L 143,289 L 142,295 Z M 134,289 L 130,292 L 127,284 L 129,282 L 134,285 L 134,289 Z M 130,292 L 124,295 L 125,297 L 118,297 L 118,291 L 127,284 L 130,292 Z M 136,275 L 139,278 L 143,276 L 144,283 L 141,285 L 143,289 L 135,290 L 134,285 L 129,283 L 133,274 L 136,275 Z M 128,295 L 131,298 L 143,295 L 144,300 L 140,308 L 141,317 L 137,319 L 134,315 L 131,323 L 119,327 L 116,322 L 111,321 L 112,319 L 104,317 L 101,313 L 96,315 L 97,312 L 88,307 L 92,301 L 104,304 L 117,303 L 117,295 L 121,298 L 128,295 Z M 92,304 L 88,307 L 97,312 L 96,315 L 104,314 L 104,317 L 112,319 L 112,322 L 116,322 L 116,325 L 122,328 L 118,334 L 108,336 L 105,340 L 101,336 L 100,347 L 95,348 L 99,357 L 95,359 L 94,365 L 88,364 L 84,358 L 80,360 L 78,357 L 81,353 L 74,350 L 76,347 L 69,330 L 65,329 L 67,322 L 63,320 L 64,315 L 71,316 L 75,311 L 74,303 L 90,300 L 92,304 Z M 160,333 L 155,333 L 155,331 L 160,333 Z M 149,318 L 154,316 L 159,320 L 159,328 L 164,331 L 160,333 L 153,330 L 150,335 L 155,336 L 154,341 L 137,338 L 136,345 L 136,341 L 128,335 L 119,333 L 122,328 L 119,327 L 131,323 L 134,315 L 137,319 L 141,317 L 141,310 L 145,311 L 149,318 Z M 155,331 L 155,335 L 152,333 L 153,330 L 155,331 Z M 229,207 L 229,213 L 232,215 L 231,221 L 239,225 L 237,228 L 241,235 L 238,237 L 236,234 L 235,236 L 241,239 L 237,250 L 230,247 L 226,252 L 223,249 L 219,251 L 218,244 L 215,244 L 206,231 L 211,224 L 208,217 L 213,221 L 216,217 L 221,216 L 221,211 L 224,212 L 225,208 L 229,207 Z M 200,206 L 195,207 L 197,221 L 192,221 L 192,224 L 189,223 L 182,229 L 174,219 L 170,218 L 167,210 L 177,198 L 180,204 L 185,201 L 189,202 L 195,192 L 200,206 Z M 213,143 L 207,145 L 209,140 L 213,143 Z M 224,157 L 221,157 L 219,163 L 216,160 L 217,154 L 213,151 L 218,151 L 224,157 Z M 216,150 L 211,155 L 208,154 L 206,156 L 209,157 L 205,161 L 197,157 L 195,161 L 191,161 L 191,154 L 199,145 L 204,147 L 213,145 L 216,150 Z M 173,200 L 170,199 L 170,194 L 174,195 L 173,200 Z M 159,157 L 167,171 L 173,169 L 182,171 L 181,179 L 177,181 L 176,186 L 180,197 L 166,210 L 163,207 L 166,200 L 158,196 L 162,190 L 160,180 L 153,177 L 152,163 L 156,156 L 159,157 Z M 229,280 L 229,284 L 226,284 L 228,278 L 229,280 Z M 229,284 L 231,286 L 227,290 L 226,286 L 229,284 Z M 215,280 L 217,283 L 212,282 L 213,278 L 215,280 Z M 225,289 L 229,290 L 225,298 L 220,290 L 225,289 Z M 218,280 L 219,284 L 216,281 L 218,280 Z M 220,289 L 223,295 L 218,297 L 220,289 Z M 213,282 L 215,282 L 214,285 L 209,284 L 210,281 L 213,282 Z M 223,273 L 222,278 L 218,277 L 218,272 L 223,273 Z M 226,288 L 222,285 L 227,284 L 226,288 Z M 216,283 L 217,286 L 214,284 L 216,283 Z M 214,285 L 209,290 L 207,288 L 209,284 L 214,285 Z M 220,280 L 219,283 L 218,280 L 220,280 Z M 218,289 L 219,291 L 215,292 L 214,288 L 218,289 Z M 226,278 L 228,277 L 227,281 L 224,281 L 224,276 L 226,278 Z M 215,286 L 212,291 L 209,290 L 210,287 L 215,286 Z M 218,291 L 219,294 L 215,295 L 214,292 L 218,291 Z M 224,284 L 220,283 L 223,281 L 224,284 Z M 224,276 L 223,281 L 221,278 L 224,276 Z M 218,289 L 214,287 L 218,285 L 218,289 Z M 219,284 L 217,285 L 216,282 L 219,284 Z M 213,151 L 217,154 L 216,160 L 219,163 L 221,157 L 224,157 L 232,165 L 235,184 L 223,197 L 228,197 L 233,205 L 225,208 L 224,212 L 206,213 L 208,209 L 200,206 L 196,198 L 195,189 L 199,186 L 197,178 L 201,175 L 196,175 L 195,161 L 197,157 L 202,158 L 201,161 L 207,160 L 209,156 L 206,156 L 211,155 L 213,151 Z M 13,86 L 16,89 L 19,88 L 13,93 L 10,88 L 11,85 L 13,86 Z M 23,78 L 12,78 L 11,75 L 14,74 L 11,73 L 11,67 L 8,64 L 13,60 L 12,65 L 16,67 L 20,76 L 19,73 L 22,74 L 23,78 Z M 21,79 L 23,78 L 22,81 L 16,84 L 15,79 L 21,79 Z M 12,78 L 16,78 L 15,86 L 10,85 L 9,77 L 12,76 L 12,78 Z M 27,84 L 24,88 L 17,87 L 20,84 L 27,84 Z M 22,98 L 25,97 L 22,104 L 27,102 L 28,108 L 25,112 L 20,111 L 17,115 L 11,116 L 9,112 L 14,109 L 15,98 L 17,96 L 22,98 Z M 21,88 L 16,96 L 14,91 L 21,88 Z M 90,246 L 93,245 L 95,250 L 91,264 L 83,267 L 79,274 L 71,273 L 70,266 L 67,269 L 60,269 L 60,265 L 55,264 L 58,258 L 65,255 L 63,250 L 74,251 L 80,246 L 90,246 Z M 89,222 L 92,221 L 91,225 L 95,231 L 92,233 L 91,246 L 80,246 L 74,251 L 58,248 L 60,244 L 65,244 L 75,235 L 80,219 L 88,218 L 89,222 Z M 58,248 L 65,254 L 55,263 L 60,265 L 60,269 L 57,275 L 46,277 L 43,272 L 53,271 L 51,268 L 53,265 L 49,267 L 51,270 L 41,272 L 38,269 L 43,267 L 43,262 L 36,261 L 37,258 L 42,256 L 44,251 L 53,252 L 57,245 L 58,248 Z M 120,170 L 114,172 L 111,164 L 116,162 L 120,170 Z M 68,331 L 76,347 L 75,353 L 72,354 L 75,354 L 76,358 L 70,355 L 65,358 L 55,358 L 55,364 L 47,369 L 45,366 L 46,369 L 43,372 L 45,376 L 41,381 L 37,374 L 30,370 L 27,375 L 22,375 L 23,368 L 32,366 L 42,356 L 47,344 L 53,346 L 50,341 L 54,341 L 62,330 L 63,320 L 67,322 L 65,329 L 68,331 Z M 109,204 L 113,202 L 119,206 L 113,216 L 113,219 L 118,218 L 117,221 L 110,223 L 110,227 L 119,231 L 117,234 L 119,236 L 115,238 L 115,244 L 113,244 L 116,260 L 112,265 L 105,266 L 103,263 L 98,268 L 95,266 L 91,268 L 89,266 L 95,251 L 91,245 L 91,237 L 95,231 L 91,225 L 92,221 L 89,222 L 85,217 L 89,210 L 96,209 L 96,203 L 101,198 L 109,204 Z M 101,283 L 97,289 L 91,284 L 95,281 L 94,275 L 101,278 L 101,283 Z M 110,269 L 115,273 L 114,281 L 108,279 L 106,266 L 110,269 Z M 105,266 L 107,275 L 102,268 L 103,263 L 105,266 Z M 102,264 L 109,281 L 107,284 L 101,284 L 101,278 L 97,273 L 97,268 L 102,264 Z M 114,281 L 115,284 L 112,287 L 108,286 L 109,281 L 114,281 Z M 104,284 L 111,286 L 112,290 L 98,290 L 99,284 L 104,284 Z M 89,266 L 91,268 L 95,266 L 98,270 L 98,275 L 94,275 L 95,281 L 93,282 L 86,276 L 88,272 L 85,267 L 89,266 Z M 85,268 L 88,272 L 82,278 L 83,280 L 72,281 L 72,277 L 79,275 L 82,268 L 85,268 Z M 189,128 L 190,135 L 185,136 L 180,132 L 180,128 L 185,124 L 189,128 Z M 141,205 L 138,214 L 129,206 L 138,201 L 141,205 Z M 140,148 L 135,150 L 136,141 L 140,148 Z M 137,112 L 133,117 L 134,121 L 143,129 L 145,128 L 151,138 L 144,151 L 136,141 L 135,150 L 128,152 L 128,156 L 124,159 L 116,155 L 121,144 L 117,143 L 119,139 L 117,131 L 122,130 L 123,126 L 120,124 L 125,119 L 123,116 L 129,117 L 137,112 Z M 215,118 L 220,120 L 215,125 L 228,153 L 225,149 L 218,149 L 211,140 L 207,142 L 207,145 L 197,145 L 193,151 L 190,148 L 185,149 L 184,145 L 190,144 L 190,128 L 199,126 L 207,120 L 208,116 L 215,118 Z M 105,168 L 105,176 L 111,180 L 114,192 L 105,195 L 102,199 L 103,191 L 97,184 L 101,179 L 99,170 L 105,168 Z M 115,173 L 121,179 L 113,185 L 111,180 L 105,176 L 104,169 L 106,167 L 114,175 L 115,173 Z M 127,192 L 126,196 L 123,193 L 115,194 L 113,202 L 109,204 L 104,199 L 105,195 L 114,192 L 113,185 L 118,181 L 127,192 Z M 75,171 L 80,170 L 79,174 L 68,181 L 69,178 L 67,180 L 62,172 L 62,165 L 71,163 L 75,171 Z M 99,170 L 101,179 L 97,184 L 101,186 L 101,191 L 98,192 L 96,189 L 90,194 L 86,189 L 83,190 L 82,183 L 85,177 L 82,174 L 88,171 L 87,168 L 92,172 L 99,170 Z M 82,174 L 85,177 L 82,183 L 83,190 L 86,189 L 90,194 L 96,189 L 98,192 L 103,191 L 101,199 L 96,203 L 96,209 L 89,210 L 85,218 L 78,216 L 83,206 L 81,207 L 77,202 L 80,194 L 68,196 L 65,203 L 62,201 L 55,203 L 61,194 L 70,188 L 70,183 L 75,177 L 82,174 Z M 110,265 L 113,265 L 114,271 L 109,269 L 107,265 L 110,265 Z M 130,264 L 129,277 L 125,280 L 123,279 L 125,276 L 119,276 L 116,266 L 112,265 L 116,260 L 116,254 L 130,264 Z M 125,280 L 118,280 L 115,284 L 114,282 L 116,277 L 123,275 L 125,280 Z M 117,270 L 119,276 L 115,277 L 113,266 L 116,266 L 117,270 Z M 25,97 L 21,98 L 18,94 L 20,89 L 27,84 L 32,98 L 29,105 L 28,94 L 22,90 L 25,97 Z M 84,35 L 87,35 L 95,45 L 98,39 L 109,37 L 107,42 L 114,41 L 116,46 L 122,47 L 123,57 L 113,66 L 97,64 L 97,71 L 89,73 L 89,71 L 87,73 L 89,75 L 84,78 L 80,78 L 80,74 L 79,78 L 76,77 L 75,72 L 73,74 L 68,69 L 69,84 L 51,72 L 49,78 L 52,87 L 49,86 L 49,81 L 41,69 L 41,63 L 43,62 L 47,69 L 46,64 L 61,60 L 59,57 L 63,53 L 68,55 L 72,44 L 78,46 L 79,39 L 84,35 Z M 133,59 L 136,59 L 132,66 L 133,75 L 139,73 L 142,77 L 140,83 L 143,85 L 142,89 L 147,93 L 147,98 L 144,98 L 140,105 L 142,111 L 131,114 L 129,117 L 123,116 L 125,111 L 120,117 L 116,112 L 112,123 L 109,120 L 110,110 L 109,114 L 106,114 L 95,94 L 104,71 L 109,70 L 106,69 L 108,67 L 117,67 L 114,67 L 117,66 L 116,61 L 128,52 L 133,59 Z M 216,117 L 208,116 L 207,120 L 199,126 L 188,128 L 187,124 L 183,125 L 180,132 L 185,136 L 190,135 L 191,139 L 190,144 L 184,145 L 185,149 L 180,151 L 176,130 L 172,133 L 170,131 L 162,133 L 155,129 L 151,136 L 133,119 L 137,112 L 142,111 L 140,105 L 144,98 L 151,96 L 155,98 L 165,93 L 172,99 L 172,95 L 176,98 L 180,95 L 193,96 L 195,92 L 205,98 L 209,110 L 216,117 Z M 78,357 L 77,351 L 81,353 L 78,357 Z M 100,347 L 99,355 L 95,352 L 95,348 L 100,347 Z M 237,250 L 248,248 L 250,255 L 268,256 L 265,260 L 268,262 L 264,266 L 260,267 L 257,262 L 254,269 L 248,270 L 250,272 L 256,269 L 255,279 L 252,281 L 247,279 L 243,284 L 234,280 L 232,276 L 226,278 L 223,275 L 224,267 L 230,264 L 226,254 L 227,249 L 234,247 L 237,250 Z M 284,219 L 279,247 L 270,256 L 265,251 L 268,255 L 259,256 L 250,255 L 248,248 L 237,249 L 241,239 L 235,236 L 236,234 L 238,237 L 241,235 L 238,233 L 239,225 L 247,224 L 246,227 L 249,229 L 266,230 L 273,224 L 283,223 L 281,219 L 284,219 Z M 284,219 L 281,219 L 283,223 L 273,224 L 266,230 L 249,229 L 246,227 L 247,224 L 239,225 L 235,221 L 232,222 L 232,215 L 228,210 L 233,202 L 236,204 L 241,192 L 247,190 L 257,193 L 259,192 L 257,191 L 272,196 L 282,205 L 284,219 Z M 218,323 L 224,329 L 216,326 L 215,323 L 218,323 Z M 234,280 L 235,282 L 230,285 L 228,277 L 232,276 L 234,280 Z M 242,283 L 237,287 L 231,286 L 234,280 L 242,283 Z M 228,309 L 235,308 L 243,316 L 251,316 L 254,320 L 251,319 L 246,324 L 237,326 L 231,332 L 227,331 L 218,322 L 219,317 L 223,316 L 224,307 L 228,306 L 228,309 Z M 246,291 L 244,296 L 239,294 L 240,285 L 248,286 L 242,290 L 246,291 Z M 252,281 L 245,281 L 247,279 L 252,281 Z M 43,36 L 35,33 L 33,23 L 37,18 L 42,21 L 45,32 L 43,36 Z M 219,307 L 224,307 L 222,310 L 224,312 L 223,316 L 219,317 L 218,323 L 215,323 L 215,327 L 196,330 L 195,333 L 191,330 L 193,328 L 190,327 L 189,322 L 196,310 L 204,311 L 217,305 L 219,307 Z M 207,217 L 211,224 L 204,237 L 200,236 L 201,239 L 192,245 L 194,248 L 192,251 L 190,248 L 178,254 L 177,241 L 181,229 L 189,223 L 192,224 L 192,221 L 197,221 L 205,213 L 207,217 Z M 181,229 L 175,247 L 172,246 L 170,253 L 165,254 L 163,247 L 155,243 L 155,236 L 158,228 L 161,231 L 173,228 L 172,225 L 165,226 L 160,216 L 165,216 L 167,210 L 170,218 L 174,219 L 181,229 Z M 179,254 L 186,253 L 184,266 L 192,270 L 190,275 L 192,285 L 189,287 L 183,282 L 168,281 L 167,283 L 164,280 L 165,254 L 168,255 L 171,247 L 175,247 L 177,242 L 179,254 Z M 210,264 L 206,261 L 207,258 L 210,258 L 210,264 Z M 207,277 L 210,281 L 208,287 L 205,285 L 207,277 Z M 214,288 L 215,292 L 212,295 L 212,288 L 214,288 Z M 207,287 L 212,291 L 212,295 L 214,292 L 218,297 L 222,295 L 225,297 L 225,307 L 217,305 L 204,311 L 196,310 L 193,303 L 197,301 L 196,295 L 205,288 L 205,285 L 207,287 Z M 164,273 L 167,285 L 162,287 L 158,281 L 164,273 Z M 161,274 L 158,284 L 162,287 L 167,284 L 171,294 L 169,300 L 163,301 L 167,317 L 165,319 L 157,315 L 149,318 L 145,311 L 140,310 L 144,300 L 141,294 L 143,285 L 141,285 L 144,283 L 143,279 L 151,274 L 154,276 L 159,272 L 161,274 Z M 185,334 L 182,341 L 178,342 L 171,336 L 168,337 L 177,330 L 185,334 Z M 190,329 L 187,328 L 189,326 L 190,329 Z M 188,325 L 185,329 L 185,325 L 188,325 Z M 214,212 L 221,211 L 221,216 L 211,221 L 209,217 L 206,217 L 206,213 L 214,212 Z M 184,217 L 181,214 L 182,211 L 186,213 L 184,217 Z M 202,206 L 208,210 L 197,221 L 195,207 L 202,206 Z M 182,198 L 181,190 L 184,192 L 182,198 Z M 195,161 L 196,175 L 201,175 L 197,178 L 199,186 L 195,189 L 196,192 L 189,202 L 185,201 L 180,204 L 178,201 L 180,197 L 176,189 L 177,181 L 181,179 L 185,164 L 188,164 L 191,159 L 195,161 Z M 222,278 L 217,280 L 218,277 L 222,278 Z M 214,278 L 212,281 L 209,279 L 213,275 L 214,278 Z M 220,289 L 218,290 L 219,284 L 220,289 Z M 222,285 L 225,289 L 223,290 L 222,285 Z M 226,281 L 226,284 L 223,284 L 223,281 L 226,281 Z M 221,284 L 220,289 L 219,284 L 221,284 Z M 136,161 L 138,166 L 132,170 L 129,162 L 136,161 Z M 128,233 L 130,231 L 131,237 L 137,236 L 140,245 L 140,252 L 136,251 L 137,259 L 130,264 L 122,257 L 119,258 L 113,248 L 119,231 L 123,228 L 128,233 Z M 147,226 L 152,225 L 153,229 L 158,228 L 155,243 L 161,246 L 157,249 L 159,252 L 148,253 L 149,250 L 147,250 L 144,255 L 140,252 L 137,236 L 131,237 L 130,232 L 136,232 L 141,225 L 147,226 Z M 166,210 L 165,216 L 157,216 L 155,211 L 152,214 L 148,213 L 146,215 L 147,226 L 142,223 L 144,220 L 142,214 L 145,211 L 142,210 L 140,197 L 137,198 L 140,192 L 139,187 L 144,184 L 146,193 L 149,193 L 145,182 L 154,176 L 160,180 L 162,190 L 158,196 L 166,200 L 163,207 L 166,210 Z M 148,193 L 145,190 L 145,182 L 148,193 Z M 137,198 L 140,197 L 139,201 L 129,206 L 136,214 L 142,206 L 142,210 L 145,211 L 142,214 L 143,225 L 133,233 L 130,231 L 128,233 L 123,228 L 115,231 L 110,227 L 110,223 L 118,219 L 117,217 L 113,219 L 119,207 L 112,201 L 114,195 L 123,193 L 126,196 L 127,192 L 136,193 L 140,190 L 137,198 Z M 256,292 L 250,292 L 249,287 L 255,289 L 256,292 Z M 240,287 L 239,294 L 244,296 L 248,289 L 250,293 L 257,294 L 274,291 L 271,295 L 272,306 L 261,311 L 257,316 L 257,321 L 251,316 L 243,316 L 235,308 L 225,307 L 225,297 L 229,288 L 239,287 L 239,285 L 240,287 Z M 165,59 L 171,65 L 169,67 L 161,63 L 165,59 Z M 173,64 L 171,65 L 165,59 L 170,61 L 172,59 L 173,64 Z M 175,69 L 169,69 L 169,67 L 174,64 L 175,69 Z M 172,69 L 176,72 L 174,76 L 170,76 L 167,71 L 172,69 Z M 169,67 L 167,71 L 158,69 L 161,63 L 169,67 Z M 124,159 L 126,166 L 122,169 L 120,159 L 121,157 L 124,159 Z M 119,150 L 116,155 L 121,158 L 116,159 L 114,153 L 119,145 L 119,150 Z M 122,169 L 116,159 L 121,160 L 122,169 Z M 126,157 L 133,162 L 129,162 L 129,166 L 125,164 L 124,157 L 126,157 Z M 117,143 L 116,131 L 119,133 L 117,143 Z M 167,145 L 167,153 L 164,155 L 159,157 L 152,151 L 162,145 L 162,142 L 165,141 L 167,145 Z M 153,135 L 162,145 L 151,149 L 147,144 L 153,135 Z M 158,131 L 162,132 L 166,140 L 161,143 L 153,135 L 155,129 L 158,131 Z M 177,143 L 173,146 L 167,145 L 162,133 L 169,131 L 172,133 L 176,130 L 178,132 L 177,143 Z M 180,151 L 177,153 L 168,151 L 167,153 L 167,145 L 173,146 L 178,143 L 180,151 Z M 140,156 L 142,160 L 137,163 L 135,156 L 140,156 Z M 133,152 L 136,161 L 133,162 L 126,157 L 128,152 L 133,152 Z M 139,150 L 141,156 L 135,156 L 133,152 L 139,150 Z M 141,148 L 144,151 L 142,158 L 139,150 L 141,148 Z M 148,147 L 151,147 L 153,151 L 146,156 L 144,148 L 148,147 Z M 156,156 L 153,160 L 149,158 L 145,160 L 147,154 L 153,151 L 156,156 Z M 153,160 L 152,164 L 145,162 L 149,158 L 153,160 Z M 148,164 L 153,164 L 151,167 L 143,168 L 145,162 L 148,164 Z M 146,156 L 143,168 L 141,161 L 143,156 L 146,156 Z M 141,161 L 142,167 L 136,165 L 138,161 L 141,161 Z M 184,166 L 182,171 L 175,171 L 175,160 L 179,160 L 184,166 Z M 170,160 L 174,164 L 174,169 L 167,171 L 159,157 L 170,160 Z M 169,152 L 176,153 L 174,164 L 167,158 L 159,157 L 169,152 Z M 193,151 L 188,164 L 184,166 L 176,160 L 176,153 L 181,149 L 190,148 L 193,151 Z M 160,216 L 161,226 L 153,229 L 152,223 L 160,216 Z M 151,218 L 156,218 L 153,224 L 149,222 L 151,218 Z M 150,217 L 149,222 L 152,225 L 147,226 L 146,221 L 150,217 Z M 150,214 L 151,217 L 147,218 L 146,215 L 150,214 Z M 158,216 L 151,218 L 151,214 L 155,211 L 158,216 Z M 165,226 L 164,231 L 158,229 L 162,221 L 165,226 Z M 172,230 L 165,230 L 166,225 L 172,225 L 172,230 Z M 217,244 L 216,252 L 210,256 L 209,254 L 205,265 L 199,259 L 200,249 L 209,248 L 212,241 L 217,244 Z M 211,238 L 214,241 L 211,246 L 203,247 L 200,236 L 204,237 L 207,233 L 211,238 Z M 188,287 L 186,290 L 185,285 L 188,287 Z M 178,282 L 183,282 L 187,293 L 174,292 L 171,295 L 168,290 L 168,281 L 178,282 Z M 193,281 L 193,294 L 187,293 L 186,290 L 193,281 Z M 198,292 L 196,295 L 193,294 L 194,286 L 199,288 L 198,292 Z M 200,285 L 202,284 L 203,288 L 198,292 L 199,288 L 194,286 L 193,281 L 198,280 L 200,285 Z M 202,283 L 205,284 L 205,288 L 200,284 L 202,283 Z M 215,274 L 219,276 L 217,281 L 214,280 L 213,275 L 215,274 Z M 142,167 L 148,169 L 152,166 L 154,175 L 139,187 L 140,190 L 132,193 L 129,187 L 137,178 L 138,173 L 135,169 L 137,166 L 142,167 Z M 137,178 L 130,184 L 131,191 L 127,192 L 122,188 L 119,181 L 121,178 L 114,172 L 115,170 L 135,169 L 138,173 L 137,178 Z M 129,166 L 133,170 L 125,171 L 128,167 L 124,168 L 129,166 Z" fill="#1E3A5F" stroke="rgba(255,255,255,0.25)" stroke-width="0.6" fill-rule="nonzero"/>
</svg>